REM DIRINDEX 1\3,1\4,1\5,1\6,1\2\7,1\2\8,1\2\9,1\10
REM DIRNAME folder01,folder02,folder03,folder04,folder05,folder06,folder07,folder08,folder09,folder10
TITLE ""
FILE "2-05 Level 4-576-586.mp3" MP3
  TRACK 01 AUDIO
    TITLE "0:"
    INDEX 01 00:00:00
  TRACK 02 AUDIO
    TITLE "7:cjc056_2003"
    INDEX 01 00:00:07
  TRACK 03 AUDIO
    TITLE "0:"
    INDEX 01 00:01:21
  TRACK 04 AUDIO
    TITLE "8:cjc056_2004"
    INDEX 01 00:01:28
  TRACK 05 AUDIO
    TITLE "0:"
    INDEX 01 00:03:00
  TRACK 06 AUDIO
    TITLE "9:cjc056_2005"
    INDEX 01 00:03:15
  TRACK 07 AUDIO
    TITLE "0:"
    INDEX 01 00:05:48
  TRACK 08 AUDIO
    TITLE "7:cjc056_2006"
    INDEX 01 00:06:26
  TRACK 09 AUDIO
    TITLE "0:"
    INDEX 01 00:07:51
  TRACK 10 AUDIO
    TITLE "8:cjc056_2007"
    INDEX 01 00:07:60
  TRACK 11 AUDIO
    TITLE "0:"
    INDEX 01 00:09:49
  TRACK 12 AUDIO
    TITLE "9:cjc056_2008"
    INDEX 01 00:09:65
  TRACK 13 AUDIO
    TITLE "0:"
    INDEX 01 00:12:71
  TRACK 14 AUDIO
    TITLE "7:cjc056_2009"
    INDEX 01 00:13:47
  TRACK 15 AUDIO
    TITLE "0:"
    INDEX 01 00:14:56
  TRACK 16 AUDIO
    TITLE "8:cjc056_2010"
    INDEX 01 00:14:70
  TRACK 17 AUDIO
    TITLE "0:"
    INDEX 01 00:16:61
  TRACK 18 AUDIO
    TITLE "9:cjc056_2011"
    INDEX 01 00:17:00
  TRACK 19 AUDIO
    TITLE "0:"
    INDEX 01 00:19:32
  TRACK 20 AUDIO
    TITLE "7:cjc056_2012"
    INDEX 01 00:20:10
  TRACK 21 AUDIO
    TITLE "0:"
    INDEX 01 00:21:09
  TRACK 22 AUDIO
    TITLE "8:cjc056_2013"
    INDEX 01 00:21:17
  TRACK 23 AUDIO
    TITLE "0:"
    INDEX 01 00:22:29
  TRACK 24 AUDIO
    TITLE "9:cjc056_2014"
    INDEX 01 00:22:42
  TRACK 25 AUDIO
    TITLE "0:"
    INDEX 01 00:23:69
  TRACK 26 AUDIO
    TITLE "7:cjc056_2015"
    INDEX 01 00:24:45
  TRACK 27 AUDIO
    TITLE "0:"
    INDEX 01 00:25:62
  TRACK 28 AUDIO
    TITLE "8:cjc056_2016"
    INDEX 01 00:25:72
  TRACK 29 AUDIO
    TITLE "0:"
    INDEX 01 00:27:32
  TRACK 30 AUDIO
    TITLE "9:cjc056_2017"
    INDEX 01 00:27:45
  TRACK 31 AUDIO
    TITLE "0:"
    INDEX 01 00:29:40
  TRACK 32 AUDIO
    TITLE "7:cjc056_2018"
    INDEX 01 00:30:14
  TRACK 33 AUDIO
    TITLE "0:"
    INDEX 01 00:31:31
  TRACK 34 AUDIO
    TITLE "8:cjc056_2019"
    INDEX 01 00:31:43
  TRACK 35 AUDIO
    TITLE "0:"
    INDEX 01 00:33:05
  TRACK 36 AUDIO
    TITLE "9:cjc056_2020"
    INDEX 01 00:33:22
  TRACK 37 AUDIO
    TITLE "0:"
    INDEX 01 00:35:06
  TRACK 38 AUDIO
    TITLE "7:cjc056_2021"
    INDEX 01 00:35:57
  TRACK 39 AUDIO
    TITLE "0:"
    INDEX 01 00:36:64
  TRACK 40 AUDIO
    TITLE "8:cjc056_2022"
    INDEX 01 00:37:03
  TRACK 41 AUDIO
    TITLE "0:"
    INDEX 01 00:38:71
  TRACK 42 AUDIO
    TITLE "9:cjc056_2023"
    INDEX 01 00:39:09
  TRACK 43 AUDIO
    TITLE "0:"
    INDEX 01 00:40:50
  TRACK 44 AUDIO
    TITLE "7:cjc056_2024"
    INDEX 01 00:41:28
  TRACK 45 AUDIO
    TITLE "0:"
    INDEX 01 00:42:31
  TRACK 46 AUDIO
    TITLE "8:cjc056_2025"
    INDEX 01 00:42:45
  TRACK 47 AUDIO
    TITLE "0:"
    INDEX 01 00:44:07
  TRACK 48 AUDIO
    TITLE "9:cjc056_2026"
    INDEX 01 00:44:22
  TRACK 49 AUDIO
    TITLE "0:"
    INDEX 01 00:45:67
  TRACK 50 AUDIO
    TITLE "7:cjc056_2027"
    INDEX 01 00:46:43
  TRACK 51 AUDIO
    TITLE "0:"
    INDEX 01 00:47:58
  TRACK 52 AUDIO
    TITLE "8:cjc056_2028"
    INDEX 01 00:47:68
  TRACK 53 AUDIO
    TITLE "0:"
    INDEX 01 00:49:06
  TRACK 54 AUDIO
    TITLE "9:cjc056_2029"
    INDEX 01 00:49:20
  TRACK 55 AUDIO
    TITLE "0:"
    INDEX 01 00:50:70
  TRACK 56 AUDIO
    TITLE "7:cjc056_2030"
    INDEX 01 00:51:44
  TRACK 57 AUDIO
    TITLE "0:"
    INDEX 01 00:52:71
  TRACK 58 AUDIO
    TITLE "8:cjc056_2031"
    INDEX 01 00:53:09
  TRACK 59 AUDIO
    TITLE "0:"
    INDEX 01 00:54:23
  TRACK 60 AUDIO
    TITLE "9:cjc056_2032"
    INDEX 01 00:54:34
  TRACK 61 AUDIO
    TITLE "0:"
    INDEX 01 00:56:24
  TRACK 62 AUDIO
    TITLE "7:cjc056_2033"
    INDEX 01 00:56:72
  TRACK 63 AUDIO
    TITLE "0:"
    INDEX 01 00:57:62
  TRACK 64 AUDIO
    TITLE "8:cjc056_2034"
    INDEX 01 00:58:03
  TRACK 65 AUDIO
    TITLE "0:"
    INDEX 01 00:59:12
  TRACK 66 AUDIO
    TITLE "9:cjc056_2035"
    INDEX 01 00:59:28
  TRACK 67 AUDIO
    TITLE "0:"
    INDEX 01 01:01:33
